<mxfile host="app.diagrams.net" modified="2024-04-22T08:42:56.678Z" agent="Mozilla/5.0 (Windows NT 10.0; Win64; x64) AppleWebKit/537.36 (KHTML, like Gecko) Chrome/124.0.0.0 Safari/537.36" etag="Le41UHIHdrTNl119oENO" version="24.2.7" type="device">
  <diagram name="Page-1" id="6y64Vb8HLY1a0R0FsIkA">
    <mxGraphModel dx="2476" dy="1569" grid="1" gridSize="10" guides="1" tooltips="1" connect="1" arrows="1" fold="1" page="1" pageScale="1" pageWidth="1100" pageHeight="850" math="0" shadow="0">
      <root>
        <mxCell id="0" />
        <mxCell id="1" parent="0" />
        <mxCell id="8BLMgCJfqCqZ4kAnsudy-92" value="" style="rounded=0;whiteSpace=wrap;html=1;strokeWidth=7;" vertex="1" parent="1">
          <mxGeometry x="40" y="-130" width="1240" height="1520" as="geometry" />
        </mxCell>
        <mxCell id="8BLMgCJfqCqZ4kAnsudy-1" value="&lt;font style=&quot;font-size: 28px;&quot;&gt;&lt;b&gt;User&lt;/b&gt;&lt;/font&gt;" style="shape=umlActor;verticalLabelPosition=bottom;verticalAlign=top;html=1;outlineConnect=0;strokeWidth=2;" vertex="1" parent="1">
          <mxGeometry x="-124" y="475" width="120" height="210" as="geometry" />
        </mxCell>
        <mxCell id="8BLMgCJfqCqZ4kAnsudy-2" value="" style="ellipse;whiteSpace=wrap;html=1;strokeWidth=2;" vertex="1" parent="1">
          <mxGeometry x="420" y="-94" width="160" height="70" as="geometry" />
        </mxCell>
        <mxCell id="8BLMgCJfqCqZ4kAnsudy-3" value="&lt;b&gt;&lt;font style=&quot;font-size: 16px;&quot;&gt;Registration&amp;nbsp;&lt;/font&gt;&lt;/b&gt;" style="text;html=1;align=center;verticalAlign=middle;whiteSpace=wrap;rounded=0;" vertex="1" parent="1">
          <mxGeometry x="440" y="-89" width="120" height="60" as="geometry" />
        </mxCell>
        <mxCell id="8BLMgCJfqCqZ4kAnsudy-4" value="" style="ellipse;whiteSpace=wrap;html=1;strokeWidth=2;" vertex="1" parent="1">
          <mxGeometry x="420" y="86" width="160" height="70" as="geometry" />
        </mxCell>
        <mxCell id="8BLMgCJfqCqZ4kAnsudy-5" value="&lt;span style=&quot;font-size: 16px;&quot;&gt;&lt;b&gt;Reset Password&lt;/b&gt;&lt;/span&gt;" style="text;html=1;align=center;verticalAlign=middle;whiteSpace=wrap;rounded=0;" vertex="1" parent="1">
          <mxGeometry x="440" y="93.5" width="120" height="55" as="geometry" />
        </mxCell>
        <mxCell id="8BLMgCJfqCqZ4kAnsudy-6" value="" style="ellipse;whiteSpace=wrap;html=1;strokeWidth=2;" vertex="1" parent="1">
          <mxGeometry x="420" y="176" width="160" height="70" as="geometry" />
        </mxCell>
        <mxCell id="8BLMgCJfqCqZ4kAnsudy-7" value="&lt;b&gt;&lt;font style=&quot;font-size: 16px;&quot;&gt;Ineractive CA&lt;/font&gt;&lt;/b&gt;" style="text;html=1;align=center;verticalAlign=middle;whiteSpace=wrap;rounded=0;" vertex="1" parent="1">
          <mxGeometry x="440" y="181" width="120" height="60" as="geometry" />
        </mxCell>
        <mxCell id="8BLMgCJfqCqZ4kAnsudy-8" value="" style="ellipse;whiteSpace=wrap;html=1;strokeWidth=2;" vertex="1" parent="1">
          <mxGeometry x="420" y="-4" width="160" height="70" as="geometry" />
        </mxCell>
        <mxCell id="8BLMgCJfqCqZ4kAnsudy-9" value="&lt;b&gt;&lt;font style=&quot;font-size: 16px;&quot;&gt;Login&lt;/font&gt;&lt;/b&gt;" style="text;html=1;align=center;verticalAlign=middle;whiteSpace=wrap;rounded=0;" vertex="1" parent="1">
          <mxGeometry x="440" y="1" width="120" height="60" as="geometry" />
        </mxCell>
        <mxCell id="8BLMgCJfqCqZ4kAnsudy-10" value="" style="ellipse;whiteSpace=wrap;html=1;strokeWidth=2;" vertex="1" parent="1">
          <mxGeometry x="420" y="258" width="160" height="70" as="geometry" />
        </mxCell>
        <mxCell id="8BLMgCJfqCqZ4kAnsudy-11" value="&lt;span style=&quot;font-size: 16px;&quot;&gt;&lt;b&gt;&amp;nbsp;Explore Institute&lt;/b&gt;&lt;/span&gt;" style="text;html=1;align=center;verticalAlign=middle;whiteSpace=wrap;rounded=0;" vertex="1" parent="1">
          <mxGeometry x="440" y="263" width="120" height="60" as="geometry" />
        </mxCell>
        <mxCell id="8BLMgCJfqCqZ4kAnsudy-12" value="" style="ellipse;whiteSpace=wrap;html=1;strokeWidth=2;" vertex="1" parent="1">
          <mxGeometry x="420" y="450" width="160" height="70" as="geometry" />
        </mxCell>
        <mxCell id="8BLMgCJfqCqZ4kAnsudy-13" value="&lt;span style=&quot;font-size: 16px;&quot;&gt;&lt;b&gt;Explore Entrance Exam&lt;/b&gt;&lt;/span&gt;" style="text;html=1;align=center;verticalAlign=middle;whiteSpace=wrap;rounded=0;" vertex="1" parent="1">
          <mxGeometry x="440" y="455" width="120" height="60" as="geometry" />
        </mxCell>
        <mxCell id="8BLMgCJfqCqZ4kAnsudy-14" value="" style="ellipse;whiteSpace=wrap;html=1;strokeWidth=2;" vertex="1" parent="1">
          <mxGeometry x="420" y="540" width="160" height="70" as="geometry" />
        </mxCell>
        <mxCell id="8BLMgCJfqCqZ4kAnsudy-15" value="&lt;b&gt;&lt;font style=&quot;font-size: 16px;&quot;&gt;View Mock Test Set&lt;/font&gt;&lt;/b&gt;" style="text;html=1;align=center;verticalAlign=middle;whiteSpace=wrap;rounded=0;" vertex="1" parent="1">
          <mxGeometry x="440" y="545" width="120" height="60" as="geometry" />
        </mxCell>
        <mxCell id="8BLMgCJfqCqZ4kAnsudy-16" value="" style="ellipse;whiteSpace=wrap;html=1;strokeWidth=2;" vertex="1" parent="1">
          <mxGeometry x="420" y="630" width="160" height="70" as="geometry" />
        </mxCell>
        <mxCell id="8BLMgCJfqCqZ4kAnsudy-17" value="&lt;b&gt;&lt;font style=&quot;font-size: 16px;&quot;&gt;Purchase Mock Test set&lt;/font&gt;&lt;/b&gt;" style="text;html=1;align=center;verticalAlign=middle;whiteSpace=wrap;rounded=0;" vertex="1" parent="1">
          <mxGeometry x="440" y="635" width="120" height="60" as="geometry" />
        </mxCell>
        <mxCell id="8BLMgCJfqCqZ4kAnsudy-18" value="" style="ellipse;whiteSpace=wrap;html=1;strokeWidth=2;" vertex="1" parent="1">
          <mxGeometry x="420" y="720" width="160" height="70" as="geometry" />
        </mxCell>
        <mxCell id="8BLMgCJfqCqZ4kAnsudy-19" value="&lt;b&gt;&lt;font style=&quot;font-size: 16px;&quot;&gt;Take Mock Test&lt;/font&gt;&lt;/b&gt;" style="text;html=1;align=center;verticalAlign=middle;whiteSpace=wrap;rounded=0;" vertex="1" parent="1">
          <mxGeometry x="440" y="725" width="120" height="60" as="geometry" />
        </mxCell>
        <mxCell id="8BLMgCJfqCqZ4kAnsudy-20" value="" style="ellipse;whiteSpace=wrap;html=1;strokeWidth=2;" vertex="1" parent="1">
          <mxGeometry x="420" y="810" width="160" height="70" as="geometry" />
        </mxCell>
        <mxCell id="8BLMgCJfqCqZ4kAnsudy-21" value="&lt;b&gt;&lt;font style=&quot;font-size: 16px;&quot;&gt;View Result&lt;/font&gt;&lt;/b&gt;" style="text;html=1;align=center;verticalAlign=middle;whiteSpace=wrap;rounded=0;" vertex="1" parent="1">
          <mxGeometry x="440" y="815" width="120" height="60" as="geometry" />
        </mxCell>
        <mxCell id="8BLMgCJfqCqZ4kAnsudy-22" value="" style="ellipse;whiteSpace=wrap;html=1;strokeWidth=2;" vertex="1" parent="1">
          <mxGeometry x="420" y="1065" width="160" height="70" as="geometry" />
        </mxCell>
        <mxCell id="8BLMgCJfqCqZ4kAnsudy-23" value="&lt;b&gt;&lt;font style=&quot;font-size: 16px;&quot;&gt;Query Alumni&amp;nbsp;&lt;/font&gt;&lt;/b&gt;" style="text;html=1;align=center;verticalAlign=middle;whiteSpace=wrap;rounded=0;" vertex="1" parent="1">
          <mxGeometry x="440" y="1070" width="120" height="60" as="geometry" />
        </mxCell>
        <mxCell id="8BLMgCJfqCqZ4kAnsudy-24" value="" style="ellipse;whiteSpace=wrap;html=1;strokeWidth=2;" vertex="1" parent="1">
          <mxGeometry x="420" y="1200" width="160" height="70" as="geometry" />
        </mxCell>
        <mxCell id="8BLMgCJfqCqZ4kAnsudy-25" value="&lt;b&gt;&lt;font style=&quot;font-size: 16px;&quot;&gt;View Query&lt;/font&gt;&lt;/b&gt;" style="text;html=1;align=center;verticalAlign=middle;whiteSpace=wrap;rounded=0;" vertex="1" parent="1">
          <mxGeometry x="440" y="1205" width="120" height="60" as="geometry" />
        </mxCell>
        <mxCell id="8BLMgCJfqCqZ4kAnsudy-26" value="" style="ellipse;whiteSpace=wrap;html=1;strokeWidth=2;" vertex="1" parent="1">
          <mxGeometry x="420" y="1290" width="160" height="70" as="geometry" />
        </mxCell>
        <mxCell id="8BLMgCJfqCqZ4kAnsudy-27" value="&lt;span style=&quot;font-size: 16px;&quot;&gt;&lt;b&gt;Review to Institue&lt;/b&gt;&lt;/span&gt;" style="text;html=1;align=center;verticalAlign=middle;whiteSpace=wrap;rounded=0;" vertex="1" parent="1">
          <mxGeometry x="440" y="1295" width="120" height="60" as="geometry" />
        </mxCell>
        <mxCell id="8BLMgCJfqCqZ4kAnsudy-28" value="&lt;div&gt;&lt;font size=&quot;1&quot; style=&quot;&quot;&gt;&lt;b style=&quot;font-size: 28px;&quot;&gt;Alumni&lt;/b&gt;&lt;/font&gt;&lt;/div&gt;" style="shape=umlActor;verticalLabelPosition=bottom;verticalAlign=top;html=1;outlineConnect=0;strokeWidth=2;" vertex="1" parent="1">
          <mxGeometry x="-90" y="1190" width="80" height="120" as="geometry" />
        </mxCell>
        <mxCell id="8BLMgCJfqCqZ4kAnsudy-29" value="" style="ellipse;whiteSpace=wrap;html=1;strokeWidth=2;" vertex="1" parent="1">
          <mxGeometry x="631" y="164" width="160" height="70" as="geometry" />
        </mxCell>
        <mxCell id="8BLMgCJfqCqZ4kAnsudy-30" value="&lt;span style=&quot;font-size: 16px;&quot;&gt;&lt;b&gt;Send Otp via mail&lt;/b&gt;&lt;/span&gt;" style="text;html=1;align=center;verticalAlign=middle;whiteSpace=wrap;rounded=0;" vertex="1" parent="1">
          <mxGeometry x="651" y="172" width="120" height="60" as="geometry" />
        </mxCell>
        <mxCell id="8BLMgCJfqCqZ4kAnsudy-31" value="" style="ellipse;whiteSpace=wrap;html=1;strokeWidth=2;" vertex="1" parent="1">
          <mxGeometry x="820" y="375" width="160" height="70" as="geometry" />
        </mxCell>
        <mxCell id="8BLMgCJfqCqZ4kAnsudy-32" value="&lt;span style=&quot;font-size: 16px;&quot;&gt;&lt;b&gt;Manage Degree Program&lt;/b&gt;&lt;/span&gt;" style="text;html=1;align=center;verticalAlign=middle;whiteSpace=wrap;rounded=0;" vertex="1" parent="1">
          <mxGeometry x="840" y="380" width="120" height="60" as="geometry" />
        </mxCell>
        <mxCell id="8BLMgCJfqCqZ4kAnsudy-33" value="" style="ellipse;whiteSpace=wrap;html=1;strokeWidth=2;" vertex="1" parent="1">
          <mxGeometry x="820" y="455" width="160" height="70" as="geometry" />
        </mxCell>
        <mxCell id="8BLMgCJfqCqZ4kAnsudy-34" value="&lt;span style=&quot;font-size: 16px;&quot;&gt;&lt;b&gt;Add Institue&lt;/b&gt;&lt;/span&gt;" style="text;html=1;align=center;verticalAlign=middle;whiteSpace=wrap;rounded=0;" vertex="1" parent="1">
          <mxGeometry x="840" y="460" width="120" height="60" as="geometry" />
        </mxCell>
        <mxCell id="8BLMgCJfqCqZ4kAnsudy-35" value="" style="ellipse;whiteSpace=wrap;html=1;strokeWidth=2;" vertex="1" parent="1">
          <mxGeometry x="820" y="540" width="160" height="70" as="geometry" />
        </mxCell>
        <mxCell id="8BLMgCJfqCqZ4kAnsudy-36" value="&lt;span style=&quot;font-size: 16px;&quot;&gt;&lt;b&gt;Manage Department&lt;/b&gt;&lt;/span&gt;" style="text;html=1;align=center;verticalAlign=middle;whiteSpace=wrap;rounded=0;" vertex="1" parent="1">
          <mxGeometry x="840" y="545" width="120" height="60" as="geometry" />
        </mxCell>
        <mxCell id="8BLMgCJfqCqZ4kAnsudy-37" value="" style="ellipse;whiteSpace=wrap;html=1;strokeWidth=2;" vertex="1" parent="1">
          <mxGeometry x="820" y="620" width="160" height="70" as="geometry" />
        </mxCell>
        <mxCell id="8BLMgCJfqCqZ4kAnsudy-38" value="&lt;span style=&quot;font-size: 16px;&quot;&gt;&lt;b&gt;View Dashboard&lt;/b&gt;&lt;/span&gt;" style="text;html=1;align=center;verticalAlign=middle;whiteSpace=wrap;rounded=0;" vertex="1" parent="1">
          <mxGeometry x="840" y="625" width="120" height="60" as="geometry" />
        </mxCell>
        <mxCell id="8BLMgCJfqCqZ4kAnsudy-39" value="&lt;font style=&quot;font-size: 28px;&quot;&gt;&lt;b&gt;Admin&lt;/b&gt;&lt;/font&gt;" style="shape=umlActor;verticalLabelPosition=bottom;verticalAlign=top;html=1;outlineConnect=0;strokeWidth=2;" vertex="1" parent="1">
          <mxGeometry x="1304" y="400" width="120" height="210" as="geometry" />
        </mxCell>
        <mxCell id="8BLMgCJfqCqZ4kAnsudy-40" value="" style="ellipse;whiteSpace=wrap;html=1;strokeWidth=2;" vertex="1" parent="1">
          <mxGeometry x="420" y="895" width="160" height="70" as="geometry" />
        </mxCell>
        <mxCell id="8BLMgCJfqCqZ4kAnsudy-41" value="&lt;b&gt;&lt;font style=&quot;font-size: 16px;&quot;&gt;Query Admin&lt;/font&gt;&lt;/b&gt;" style="text;html=1;align=center;verticalAlign=middle;whiteSpace=wrap;rounded=0;" vertex="1" parent="1">
          <mxGeometry x="440" y="900" width="120" height="60" as="geometry" />
        </mxCell>
        <mxCell id="8BLMgCJfqCqZ4kAnsudy-42" value="" style="ellipse;whiteSpace=wrap;html=1;strokeWidth=2;" vertex="1" parent="1">
          <mxGeometry x="420" y="980" width="160" height="70" as="geometry" />
        </mxCell>
        <mxCell id="8BLMgCJfqCqZ4kAnsudy-43" value="&lt;b&gt;&lt;font style=&quot;font-size: 16px;&quot;&gt;Add to cart&lt;/font&gt;&lt;/b&gt;" style="text;html=1;align=center;verticalAlign=middle;whiteSpace=wrap;rounded=0;" vertex="1" parent="1">
          <mxGeometry x="440" y="985" width="120" height="60" as="geometry" />
        </mxCell>
        <mxCell id="8BLMgCJfqCqZ4kAnsudy-44" value="" style="ellipse;whiteSpace=wrap;html=1;strokeWidth=2;" vertex="1" parent="1">
          <mxGeometry x="820" y="910" width="160" height="70" as="geometry" />
        </mxCell>
        <mxCell id="8BLMgCJfqCqZ4kAnsudy-45" value="&lt;b&gt;&lt;font style=&quot;font-size: 16px;&quot;&gt;Add to cart&lt;/font&gt;&lt;/b&gt;" style="text;html=1;align=center;verticalAlign=middle;whiteSpace=wrap;rounded=0;" vertex="1" parent="1">
          <mxGeometry x="840" y="915" width="120" height="60" as="geometry" />
        </mxCell>
        <mxCell id="8BLMgCJfqCqZ4kAnsudy-46" value="" style="ellipse;whiteSpace=wrap;html=1;strokeWidth=2;" vertex="1" parent="1">
          <mxGeometry x="820" y="990" width="160" height="70" as="geometry" />
        </mxCell>
        <mxCell id="8BLMgCJfqCqZ4kAnsudy-47" value="&lt;b&gt;&lt;font style=&quot;font-size: 16px;&quot;&gt;View cart&lt;/font&gt;&lt;/b&gt;" style="text;html=1;align=center;verticalAlign=middle;whiteSpace=wrap;rounded=0;" vertex="1" parent="1">
          <mxGeometry x="840" y="995" width="120" height="60" as="geometry" />
        </mxCell>
        <mxCell id="8BLMgCJfqCqZ4kAnsudy-48" value="" style="ellipse;whiteSpace=wrap;html=1;strokeWidth=2;" vertex="1" parent="1">
          <mxGeometry x="820" y="1070" width="160" height="70" as="geometry" />
        </mxCell>
        <mxCell id="8BLMgCJfqCqZ4kAnsudy-49" value="&lt;b&gt;&lt;font style=&quot;font-size: 16px;&quot;&gt;Remove item&lt;/font&gt;&lt;/b&gt;" style="text;html=1;align=center;verticalAlign=middle;whiteSpace=wrap;rounded=0;" vertex="1" parent="1">
          <mxGeometry x="840" y="1075" width="120" height="60" as="geometry" />
        </mxCell>
        <mxCell id="8BLMgCJfqCqZ4kAnsudy-50" value="" style="ellipse;whiteSpace=wrap;html=1;strokeWidth=2;" vertex="1" parent="1">
          <mxGeometry x="820" y="1200" width="160" height="70" as="geometry" />
        </mxCell>
        <mxCell id="8BLMgCJfqCqZ4kAnsudy-51" value="&lt;b&gt;&lt;font style=&quot;font-size: 16px;&quot;&gt;Reponse Query via mail&lt;/font&gt;&lt;/b&gt;" style="text;html=1;align=center;verticalAlign=middle;whiteSpace=wrap;rounded=0;" vertex="1" parent="1">
          <mxGeometry x="840" y="1205" width="120" height="60" as="geometry" />
        </mxCell>
        <mxCell id="8BLMgCJfqCqZ4kAnsudy-52" value="" style="ellipse;whiteSpace=wrap;html=1;strokeWidth=2;" vertex="1" parent="1">
          <mxGeometry x="820" y="1285" width="160" height="70" as="geometry" />
        </mxCell>
        <mxCell id="8BLMgCJfqCqZ4kAnsudy-53" value="&lt;span style=&quot;font-size: 16px;&quot;&gt;&lt;b&gt;Add review&lt;/b&gt;&lt;/span&gt;" style="text;html=1;align=center;verticalAlign=middle;whiteSpace=wrap;rounded=0;" vertex="1" parent="1">
          <mxGeometry x="840" y="1290" width="120" height="60" as="geometry" />
        </mxCell>
        <mxCell id="8BLMgCJfqCqZ4kAnsudy-54" value="" style="endArrow=none;html=1;rounded=0;entryX=0;entryY=0.5;entryDx=0;entryDy=0;exitX=1;exitY=0.3333333333333333;exitDx=0;exitDy=0;exitPerimeter=0;" edge="1" parent="1" source="8BLMgCJfqCqZ4kAnsudy-1" target="8BLMgCJfqCqZ4kAnsudy-2">
          <mxGeometry width="50" height="50" relative="1" as="geometry">
            <mxPoint x="760" y="400" as="sourcePoint" />
            <mxPoint x="810" y="350" as="targetPoint" />
          </mxGeometry>
        </mxCell>
        <mxCell id="8BLMgCJfqCqZ4kAnsudy-55" value="" style="endArrow=none;html=1;rounded=0;exitX=1;exitY=0.3333333333333333;exitDx=0;exitDy=0;exitPerimeter=0;entryX=0;entryY=0.5;entryDx=0;entryDy=0;" edge="1" parent="1" source="8BLMgCJfqCqZ4kAnsudy-1" target="8BLMgCJfqCqZ4kAnsudy-8">
          <mxGeometry width="50" height="50" relative="1" as="geometry">
            <mxPoint x="760" y="400" as="sourcePoint" />
            <mxPoint x="810" y="350" as="targetPoint" />
          </mxGeometry>
        </mxCell>
        <mxCell id="8BLMgCJfqCqZ4kAnsudy-56" value="" style="endArrow=none;html=1;rounded=0;exitX=1;exitY=0.3333333333333333;exitDx=0;exitDy=0;exitPerimeter=0;entryX=0;entryY=0.5;entryDx=0;entryDy=0;" edge="1" parent="1" source="8BLMgCJfqCqZ4kAnsudy-1" target="8BLMgCJfqCqZ4kAnsudy-4">
          <mxGeometry width="50" height="50" relative="1" as="geometry">
            <mxPoint x="50" y="555" as="sourcePoint" />
            <mxPoint x="430" y="145" as="targetPoint" />
          </mxGeometry>
        </mxCell>
        <mxCell id="8BLMgCJfqCqZ4kAnsudy-57" value="" style="endArrow=none;html=1;rounded=0;exitX=1;exitY=0.3333333333333333;exitDx=0;exitDy=0;exitPerimeter=0;entryX=0;entryY=0.5;entryDx=0;entryDy=0;" edge="1" parent="1" source="8BLMgCJfqCqZ4kAnsudy-1" target="8BLMgCJfqCqZ4kAnsudy-6">
          <mxGeometry width="50" height="50" relative="1" as="geometry">
            <mxPoint x="60" y="565" as="sourcePoint" />
            <mxPoint x="440" y="155" as="targetPoint" />
          </mxGeometry>
        </mxCell>
        <mxCell id="8BLMgCJfqCqZ4kAnsudy-58" value="" style="endArrow=none;html=1;rounded=0;entryX=0;entryY=0.5;entryDx=0;entryDy=0;exitX=1;exitY=0.3333333333333333;exitDx=0;exitDy=0;exitPerimeter=0;" edge="1" parent="1" source="8BLMgCJfqCqZ4kAnsudy-1" target="8BLMgCJfqCqZ4kAnsudy-10">
          <mxGeometry width="50" height="50" relative="1" as="geometry">
            <mxPoint x="90" y="570" as="sourcePoint" />
            <mxPoint x="450" y="165" as="targetPoint" />
          </mxGeometry>
        </mxCell>
        <mxCell id="8BLMgCJfqCqZ4kAnsudy-59" value="" style="endArrow=none;html=1;rounded=0;entryX=0;entryY=0.5;entryDx=0;entryDy=0;exitX=1;exitY=0.3333333333333333;exitDx=0;exitDy=0;exitPerimeter=0;" edge="1" parent="1" source="8BLMgCJfqCqZ4kAnsudy-1" target="8BLMgCJfqCqZ4kAnsudy-14">
          <mxGeometry width="50" height="50" relative="1" as="geometry">
            <mxPoint x="50" y="555" as="sourcePoint" />
            <mxPoint x="430" y="405" as="targetPoint" />
          </mxGeometry>
        </mxCell>
        <mxCell id="8BLMgCJfqCqZ4kAnsudy-60" value="" style="endArrow=none;html=1;rounded=0;entryX=0;entryY=0.5;entryDx=0;entryDy=0;exitX=1;exitY=0.3333333333333333;exitDx=0;exitDy=0;exitPerimeter=0;" edge="1" parent="1" source="8BLMgCJfqCqZ4kAnsudy-1" target="8BLMgCJfqCqZ4kAnsudy-16">
          <mxGeometry width="50" height="50" relative="1" as="geometry">
            <mxPoint x="60" y="565" as="sourcePoint" />
            <mxPoint x="440" y="415" as="targetPoint" />
          </mxGeometry>
        </mxCell>
        <mxCell id="8BLMgCJfqCqZ4kAnsudy-61" value="" style="endArrow=none;html=1;rounded=0;entryX=0;entryY=0.5;entryDx=0;entryDy=0;exitX=1;exitY=0.3333333333333333;exitDx=0;exitDy=0;exitPerimeter=0;" edge="1" parent="1" source="8BLMgCJfqCqZ4kAnsudy-1" target="8BLMgCJfqCqZ4kAnsudy-18">
          <mxGeometry width="50" height="50" relative="1" as="geometry">
            <mxPoint x="70" y="575" as="sourcePoint" />
            <mxPoint x="450" y="425" as="targetPoint" />
          </mxGeometry>
        </mxCell>
        <mxCell id="8BLMgCJfqCqZ4kAnsudy-62" value="" style="endArrow=none;html=1;rounded=0;entryX=0;entryY=0.5;entryDx=0;entryDy=0;exitX=1;exitY=0.3333333333333333;exitDx=0;exitDy=0;exitPerimeter=0;" edge="1" parent="1" source="8BLMgCJfqCqZ4kAnsudy-1" target="8BLMgCJfqCqZ4kAnsudy-12">
          <mxGeometry width="50" height="50" relative="1" as="geometry">
            <mxPoint x="80" y="585" as="sourcePoint" />
            <mxPoint x="460" y="435" as="targetPoint" />
          </mxGeometry>
        </mxCell>
        <mxCell id="8BLMgCJfqCqZ4kAnsudy-63" value="" style="endArrow=none;html=1;rounded=0;exitX=1;exitY=0.3333333333333333;exitDx=0;exitDy=0;exitPerimeter=0;entryX=0;entryY=0.5;entryDx=0;entryDy=0;" edge="1" parent="1" source="8BLMgCJfqCqZ4kAnsudy-1" target="8BLMgCJfqCqZ4kAnsudy-20">
          <mxGeometry width="50" height="50" relative="1" as="geometry">
            <mxPoint x="50" y="555" as="sourcePoint" />
            <mxPoint x="410" y="830" as="targetPoint" />
          </mxGeometry>
        </mxCell>
        <mxCell id="8BLMgCJfqCqZ4kAnsudy-64" value="" style="endArrow=none;html=1;rounded=0;entryX=0;entryY=0.5;entryDx=0;entryDy=0;exitX=1;exitY=0.3333333333333333;exitDx=0;exitDy=0;exitPerimeter=0;" edge="1" parent="1" source="8BLMgCJfqCqZ4kAnsudy-1">
          <mxGeometry width="50" height="50" relative="1" as="geometry">
            <mxPoint x="1280" y="375.6666666666665" as="sourcePoint" />
            <mxPoint x="420" y="929" as="targetPoint" />
          </mxGeometry>
        </mxCell>
        <mxCell id="8BLMgCJfqCqZ4kAnsudy-65" value="" style="endArrow=none;html=1;rounded=0;entryX=0;entryY=0.5;entryDx=0;entryDy=0;exitX=1;exitY=0.3333333333333333;exitDx=0;exitDy=0;exitPerimeter=0;" edge="1" parent="1" source="8BLMgCJfqCqZ4kAnsudy-1" target="8BLMgCJfqCqZ4kAnsudy-42">
          <mxGeometry width="50" height="50" relative="1" as="geometry">
            <mxPoint x="70" y="575" as="sourcePoint" />
            <mxPoint x="450" y="785" as="targetPoint" />
          </mxGeometry>
        </mxCell>
        <mxCell id="8BLMgCJfqCqZ4kAnsudy-66" value="" style="endArrow=none;html=1;rounded=0;entryX=0;entryY=0.5;entryDx=0;entryDy=0;exitX=1;exitY=0.3333333333333333;exitDx=0;exitDy=0;exitPerimeter=0;" edge="1" parent="1" source="8BLMgCJfqCqZ4kAnsudy-1" target="8BLMgCJfqCqZ4kAnsudy-22">
          <mxGeometry width="50" height="50" relative="1" as="geometry">
            <mxPoint x="60" y="600" as="sourcePoint" />
            <mxPoint x="460" y="795" as="targetPoint" />
          </mxGeometry>
        </mxCell>
        <mxCell id="8BLMgCJfqCqZ4kAnsudy-67" value="" style="endArrow=none;html=1;rounded=0;exitX=1;exitY=0.3333333333333333;exitDx=0;exitDy=0;exitPerimeter=0;entryX=0;entryY=0.5;entryDx=0;entryDy=0;" edge="1" parent="1" source="8BLMgCJfqCqZ4kAnsudy-28" target="8BLMgCJfqCqZ4kAnsudy-24">
          <mxGeometry width="50" height="50" relative="1" as="geometry">
            <mxPoint x="260" y="1250" as="sourcePoint" />
            <mxPoint x="310" y="1200" as="targetPoint" />
          </mxGeometry>
        </mxCell>
        <mxCell id="8BLMgCJfqCqZ4kAnsudy-68" value="" style="endArrow=none;html=1;rounded=0;exitX=1;exitY=0.3333333333333333;exitDx=0;exitDy=0;exitPerimeter=0;entryX=0;entryY=0.5;entryDx=0;entryDy=0;" edge="1" parent="1" source="8BLMgCJfqCqZ4kAnsudy-28" target="8BLMgCJfqCqZ4kAnsudy-26">
          <mxGeometry width="50" height="50" relative="1" as="geometry">
            <mxPoint y="1240" as="sourcePoint" />
            <mxPoint x="430" y="1245" as="targetPoint" />
          </mxGeometry>
        </mxCell>
        <mxCell id="8BLMgCJfqCqZ4kAnsudy-69" value="" style="endArrow=none;html=1;rounded=0;exitX=1;exitY=0.5;exitDx=0;exitDy=0;entryX=0;entryY=0.5;entryDx=0;entryDy=0;" edge="1" parent="1" source="8BLMgCJfqCqZ4kAnsudy-42" target="8BLMgCJfqCqZ4kAnsudy-44">
          <mxGeometry width="50" height="50" relative="1" as="geometry">
            <mxPoint x="660" y="1020" as="sourcePoint" />
            <mxPoint x="710" y="970" as="targetPoint" />
          </mxGeometry>
        </mxCell>
        <mxCell id="8BLMgCJfqCqZ4kAnsudy-70" value="" style="endArrow=none;html=1;rounded=0;exitX=1;exitY=0.5;exitDx=0;exitDy=0;entryX=0;entryY=0.5;entryDx=0;entryDy=0;" edge="1" parent="1" source="8BLMgCJfqCqZ4kAnsudy-42" target="8BLMgCJfqCqZ4kAnsudy-46">
          <mxGeometry width="50" height="50" relative="1" as="geometry">
            <mxPoint x="590" y="1025" as="sourcePoint" />
            <mxPoint x="830" y="955" as="targetPoint" />
          </mxGeometry>
        </mxCell>
        <mxCell id="8BLMgCJfqCqZ4kAnsudy-71" value="" style="endArrow=none;html=1;rounded=0;exitX=1;exitY=0.5;exitDx=0;exitDy=0;entryX=0;entryY=0.5;entryDx=0;entryDy=0;" edge="1" parent="1" source="8BLMgCJfqCqZ4kAnsudy-42" target="8BLMgCJfqCqZ4kAnsudy-48">
          <mxGeometry width="50" height="50" relative="1" as="geometry">
            <mxPoint x="600" y="1035" as="sourcePoint" />
            <mxPoint x="840" y="965" as="targetPoint" />
          </mxGeometry>
        </mxCell>
        <mxCell id="8BLMgCJfqCqZ4kAnsudy-72" value="&amp;lt;&amp;lt;include&amp;gt;&amp;gt;" style="text;html=1;align=center;verticalAlign=middle;whiteSpace=wrap;rounded=0;rotation=-15;" vertex="1" parent="1">
          <mxGeometry x="690" y="950" width="60" height="30" as="geometry" />
        </mxCell>
        <mxCell id="8BLMgCJfqCqZ4kAnsudy-73" value="&amp;lt;&amp;lt;include&amp;gt;&amp;gt;" style="text;html=1;align=center;verticalAlign=middle;whiteSpace=wrap;rounded=0;rotation=0;" vertex="1" parent="1">
          <mxGeometry x="720" y="995" width="60" height="30" as="geometry" />
        </mxCell>
        <mxCell id="8BLMgCJfqCqZ4kAnsudy-74" value="&amp;lt;&amp;lt;include&amp;gt;&amp;gt;" style="text;html=1;align=center;verticalAlign=middle;whiteSpace=wrap;rounded=0;rotation=15;" vertex="1" parent="1">
          <mxGeometry x="720" y="1050" width="60" height="30" as="geometry" />
        </mxCell>
        <mxCell id="8BLMgCJfqCqZ4kAnsudy-75" value="" style="endArrow=none;html=1;rounded=0;exitX=1;exitY=0.5;exitDx=0;exitDy=0;entryX=0;entryY=0.5;entryDx=0;entryDy=0;" edge="1" parent="1" source="8BLMgCJfqCqZ4kAnsudy-24" target="8BLMgCJfqCqZ4kAnsudy-50">
          <mxGeometry width="50" height="50" relative="1" as="geometry">
            <mxPoint x="770" y="1430" as="sourcePoint" />
            <mxPoint x="820" y="1380" as="targetPoint" />
          </mxGeometry>
        </mxCell>
        <mxCell id="8BLMgCJfqCqZ4kAnsudy-76" value="" style="endArrow=none;html=1;rounded=0;exitX=1;exitY=0.5;exitDx=0;exitDy=0;entryX=0;entryY=0.5;entryDx=0;entryDy=0;" edge="1" parent="1" source="8BLMgCJfqCqZ4kAnsudy-26" target="8BLMgCJfqCqZ4kAnsudy-52">
          <mxGeometry width="50" height="50" relative="1" as="geometry">
            <mxPoint x="590" y="1245" as="sourcePoint" />
            <mxPoint x="830" y="1245" as="targetPoint" />
          </mxGeometry>
        </mxCell>
        <mxCell id="8BLMgCJfqCqZ4kAnsudy-77" value="&amp;lt;&amp;lt;include&amp;gt;&amp;gt;" style="text;html=1;align=center;verticalAlign=middle;whiteSpace=wrap;rounded=0;" vertex="1" parent="1">
          <mxGeometry x="690" y="1205" width="60" height="30" as="geometry" />
        </mxCell>
        <mxCell id="8BLMgCJfqCqZ4kAnsudy-78" value="&amp;lt;&amp;lt;include&amp;gt;&amp;gt;" style="text;html=1;align=center;verticalAlign=middle;whiteSpace=wrap;rounded=0;" vertex="1" parent="1">
          <mxGeometry x="680" y="1290" width="60" height="30" as="geometry" />
        </mxCell>
        <mxCell id="8BLMgCJfqCqZ4kAnsudy-79" value="" style="endArrow=none;html=1;rounded=0;exitX=1;exitY=0.5;exitDx=0;exitDy=0;entryX=0;entryY=0;entryDx=0;entryDy=0;" edge="1" parent="1" source="8BLMgCJfqCqZ4kAnsudy-4" target="8BLMgCJfqCqZ4kAnsudy-29">
          <mxGeometry width="50" height="50" relative="1" as="geometry">
            <mxPoint x="830" y="430" as="sourcePoint" />
            <mxPoint x="880" y="380" as="targetPoint" />
          </mxGeometry>
        </mxCell>
        <mxCell id="8BLMgCJfqCqZ4kAnsudy-80" value="&amp;lt;&amp;lt;include&amp;gt;&amp;gt;" style="text;html=1;align=center;verticalAlign=middle;whiteSpace=wrap;rounded=0;" vertex="1" parent="1">
          <mxGeometry x="610" y="118.5" width="60" height="30" as="geometry" />
        </mxCell>
        <mxCell id="8BLMgCJfqCqZ4kAnsudy-82" value="" style="endArrow=none;html=1;rounded=0;exitX=1;exitY=0.5;exitDx=0;exitDy=0;entryX=0;entryY=0.3333333333333333;entryDx=0;entryDy=0;entryPerimeter=0;" edge="1" parent="1" source="8BLMgCJfqCqZ4kAnsudy-31" target="8BLMgCJfqCqZ4kAnsudy-39">
          <mxGeometry width="50" height="50" relative="1" as="geometry">
            <mxPoint x="1120" y="540" as="sourcePoint" />
            <mxPoint x="1170" y="490" as="targetPoint" />
          </mxGeometry>
        </mxCell>
        <mxCell id="8BLMgCJfqCqZ4kAnsudy-83" value="" style="endArrow=none;html=1;rounded=0;exitX=1;exitY=0.5;exitDx=0;exitDy=0;entryX=0;entryY=0.3333333333333333;entryDx=0;entryDy=0;entryPerimeter=0;" edge="1" parent="1" source="8BLMgCJfqCqZ4kAnsudy-33" target="8BLMgCJfqCqZ4kAnsudy-39">
          <mxGeometry width="50" height="50" relative="1" as="geometry">
            <mxPoint x="990" y="420" as="sourcePoint" />
            <mxPoint x="1290" y="480" as="targetPoint" />
          </mxGeometry>
        </mxCell>
        <mxCell id="8BLMgCJfqCqZ4kAnsudy-84" value="" style="endArrow=none;html=1;rounded=0;exitX=1;exitY=0.5;exitDx=0;exitDy=0;entryX=0;entryY=0.3333333333333333;entryDx=0;entryDy=0;entryPerimeter=0;" edge="1" parent="1" source="8BLMgCJfqCqZ4kAnsudy-35" target="8BLMgCJfqCqZ4kAnsudy-39">
          <mxGeometry width="50" height="50" relative="1" as="geometry">
            <mxPoint x="1000" y="430" as="sourcePoint" />
            <mxPoint x="1300" y="490" as="targetPoint" />
          </mxGeometry>
        </mxCell>
        <mxCell id="8BLMgCJfqCqZ4kAnsudy-85" value="" style="endArrow=none;html=1;rounded=0;exitX=1;exitY=0.5;exitDx=0;exitDy=0;entryX=0;entryY=0.3333333333333333;entryDx=0;entryDy=0;entryPerimeter=0;" edge="1" parent="1" source="8BLMgCJfqCqZ4kAnsudy-37" target="8BLMgCJfqCqZ4kAnsudy-39">
          <mxGeometry width="50" height="50" relative="1" as="geometry">
            <mxPoint x="1010" y="440" as="sourcePoint" />
            <mxPoint x="1310" y="500" as="targetPoint" />
          </mxGeometry>
        </mxCell>
        <mxCell id="8BLMgCJfqCqZ4kAnsudy-86" value="" style="endArrow=none;html=1;rounded=0;exitX=0.925;exitY=0.021;exitDx=0;exitDy=0;entryX=0;entryY=0.3333333333333333;entryDx=0;entryDy=0;entryPerimeter=0;exitPerimeter=0;" edge="1" parent="1" source="8BLMgCJfqCqZ4kAnsudy-25" target="8BLMgCJfqCqZ4kAnsudy-39">
          <mxGeometry width="50" height="50" relative="1" as="geometry">
            <mxPoint x="540" y="1226.5" as="sourcePoint" />
            <mxPoint x="1310" y="470" as="targetPoint" />
            <Array as="points">
              <mxPoint x="1000" y="1140" />
            </Array>
          </mxGeometry>
        </mxCell>
        <mxCell id="8BLMgCJfqCqZ4kAnsudy-87" value="&lt;b style=&quot;font-size: 16px;&quot;&gt;Explore Degree Program&lt;/b&gt;" style="ellipse;whiteSpace=wrap;html=1;strokeWidth=2;" vertex="1" parent="1">
          <mxGeometry x="420" y="350" width="160" height="70" as="geometry" />
        </mxCell>
        <mxCell id="8BLMgCJfqCqZ4kAnsudy-90" value="" style="endArrow=none;html=1;rounded=0;entryX=0;entryY=0.5;entryDx=0;entryDy=0;exitX=1;exitY=0.3333333333333333;exitDx=0;exitDy=0;exitPerimeter=0;" edge="1" parent="1" source="8BLMgCJfqCqZ4kAnsudy-1" target="8BLMgCJfqCqZ4kAnsudy-87">
          <mxGeometry width="50" height="50" relative="1" as="geometry">
            <mxPoint x="420" y="550" as="sourcePoint" />
            <mxPoint x="470" y="500" as="targetPoint" />
          </mxGeometry>
        </mxCell>
        <mxCell id="8BLMgCJfqCqZ4kAnsudy-91" value="" style="endArrow=none;html=1;rounded=0;entryX=0;entryY=0.3333333333333333;entryDx=0;entryDy=0;entryPerimeter=0;exitX=1;exitY=0.5;exitDx=0;exitDy=0;" edge="1" parent="1" source="8BLMgCJfqCqZ4kAnsudy-8" target="8BLMgCJfqCqZ4kAnsudy-39">
          <mxGeometry width="50" height="50" relative="1" as="geometry">
            <mxPoint x="1040" y="290" as="sourcePoint" />
            <mxPoint x="1090" y="240" as="targetPoint" />
          </mxGeometry>
        </mxCell>
        <mxCell id="8BLMgCJfqCqZ4kAnsudy-93" value="" style="endArrow=none;html=1;rounded=0;entryX=0;entryY=0.5;entryDx=0;entryDy=0;exitX=1;exitY=0.3333333333333333;exitDx=0;exitDy=0;exitPerimeter=0;" edge="1" parent="1" source="8BLMgCJfqCqZ4kAnsudy-1" target="8BLMgCJfqCqZ4kAnsudy-92">
          <mxGeometry width="50" height="50" relative="1" as="geometry">
            <mxPoint x="40" y="545" as="sourcePoint" />
            <mxPoint x="420" y="930" as="targetPoint" />
          </mxGeometry>
        </mxCell>
        <mxCell id="8BLMgCJfqCqZ4kAnsudy-96" value="" style="ellipse;whiteSpace=wrap;html=1;strokeWidth=2;" vertex="1" parent="1">
          <mxGeometry x="820" y="715" width="160" height="70" as="geometry" />
        </mxCell>
        <mxCell id="8BLMgCJfqCqZ4kAnsudy-95" value="&lt;span style=&quot;font-size: 16px;&quot;&gt;&lt;b&gt;Add mock test&lt;/b&gt;&lt;/span&gt;" style="text;html=1;align=center;verticalAlign=middle;whiteSpace=wrap;rounded=0;" vertex="1" parent="1">
          <mxGeometry x="840" y="718" width="120" height="60" as="geometry" />
        </mxCell>
        <mxCell id="8BLMgCJfqCqZ4kAnsudy-97" value="" style="endArrow=none;html=1;rounded=0;entryX=0;entryY=0.3333333333333333;entryDx=0;entryDy=0;entryPerimeter=0;exitX=1;exitY=0.5;exitDx=0;exitDy=0;" edge="1" parent="1" source="8BLMgCJfqCqZ4kAnsudy-96" target="8BLMgCJfqCqZ4kAnsudy-39">
          <mxGeometry width="50" height="50" relative="1" as="geometry">
            <mxPoint x="770" y="650" as="sourcePoint" />
            <mxPoint x="820" y="600" as="targetPoint" />
          </mxGeometry>
        </mxCell>
        <mxCell id="8BLMgCJfqCqZ4kAnsudy-98" value="" style="endArrow=none;html=1;rounded=0;exitX=1;exitY=0.3333333333333333;exitDx=0;exitDy=0;exitPerimeter=0;entryX=0;entryY=0.5;entryDx=0;entryDy=0;" edge="1" parent="1" target="8BLMgCJfqCqZ4kAnsudy-2">
          <mxGeometry width="50" height="50" relative="1" as="geometry">
            <mxPoint x="-10" y="1229" as="sourcePoint" />
            <mxPoint x="590" y="1129" as="targetPoint" />
          </mxGeometry>
        </mxCell>
        <mxCell id="8BLMgCJfqCqZ4kAnsudy-99" value="" style="endArrow=none;html=1;rounded=0;exitX=1;exitY=0.3333333333333333;exitDx=0;exitDy=0;exitPerimeter=0;entryX=0;entryY=0.5;entryDx=0;entryDy=0;" edge="1" parent="1" source="8BLMgCJfqCqZ4kAnsudy-28" target="8BLMgCJfqCqZ4kAnsudy-8">
          <mxGeometry width="50" height="50" relative="1" as="geometry">
            <mxPoint x="540" y="1260" as="sourcePoint" />
            <mxPoint x="590" y="1210" as="targetPoint" />
          </mxGeometry>
        </mxCell>
        <mxCell id="8BLMgCJfqCqZ4kAnsudy-100" value="" style="endArrow=none;html=1;rounded=0;exitX=1;exitY=0.3333333333333333;exitDx=0;exitDy=0;exitPerimeter=0;entryX=0;entryY=0.5;entryDx=0;entryDy=0;" edge="1" parent="1" source="8BLMgCJfqCqZ4kAnsudy-28" target="8BLMgCJfqCqZ4kAnsudy-4">
          <mxGeometry width="50" height="50" relative="1" as="geometry">
            <mxPoint x="540" y="1160" as="sourcePoint" />
            <mxPoint x="590" y="1110" as="targetPoint" />
          </mxGeometry>
        </mxCell>
      </root>
    </mxGraphModel>
  </diagram>
</mxfile>
